<svg width="90" height="96" viewBox="0 0 90 96" fill="none" xmlns="http://www.w3.org/2000/svg">
<g clip-path="url(#clip0_718_33919)">
<path fill-rule="evenodd" clip-rule="evenodd" d="M32.6913 184.773C34.1726 169.459 36.4948 144.713 37.1096 133.879C38.0327 117.619 42.9556 77.8886 42.9556 77.8886H46.8912C46.8912 77.8886 51.814 117.619 52.7371 133.879C53.3524 144.713 55.6741 169.459 57.1559 184.773H68.3256C69.7285 168.953 71.8796 139.554 71.352 112.757C70.5828 73.6978 63.3814 38.1228 63.3814 38.1228L45.1096 31.9529V31.9199L44.9238 31.936L44.7376 31.9199V31.9529L26.4653 38.1228C26.4653 38.1228 19.2643 73.6978 18.4951 112.757C17.9675 139.554 20.1186 168.953 21.5215 184.773H32.6913Z" fill="white"/>
<path d="M27.1771 38.7473L44.9155 32.7577L44.9239 32.7584L44.9317 32.7577L62.6697 38.7473C62.7218 39.014 62.7952 39.3936 62.8872 39.88C63.0849 40.9254 63.3685 42.4637 63.7114 44.4323C64.3971 48.3696 65.3198 54.0273 66.2665 60.9045C68.1603 74.661 70.149 93.2859 70.5327 112.773C71.0513 139.109 68.9777 167.977 67.5753 183.953H57.8999C56.4155 168.588 54.1595 144.474 53.5552 133.833C53.0922 125.676 51.628 111.656 50.2823 99.6946C49.6089 93.7096 48.9645 88.2333 48.4884 84.2532C48.2503 82.2631 48.0544 80.647 47.9179 79.5283C47.8496 78.9689 47.7963 78.5339 47.76 78.2387L47.7185 77.9027L47.7079 77.8169L47.7053 77.7952L47.7046 77.7897L47.7044 77.7883C47.7044 77.788 47.7044 77.7878 46.8912 77.8886L47.7044 77.7878L47.6153 77.0692H46.8912H42.9556H42.2314L42.1424 77.7878L42.9556 77.8886C42.1424 77.7878 42.1423 77.788 42.1423 77.7883L42.1421 77.7897L42.1415 77.7952L42.1388 77.8169L42.1282 77.9027L42.0868 78.2387C42.0505 78.5339 41.9971 78.9689 41.9288 79.5283C41.7924 80.647 41.5964 82.2631 41.3583 84.2532C40.8822 88.2333 40.2378 93.7096 39.5645 99.6946C38.2188 111.656 36.7545 125.676 36.2915 133.833C35.6876 144.474 33.4312 168.588 31.9472 183.953H22.2718C20.8695 167.977 18.7959 139.109 19.3144 112.773C19.6981 93.2859 21.6867 74.661 23.5804 60.9045C24.5271 54.0273 25.4497 48.3696 26.1354 44.4323C26.4782 42.4637 26.7618 40.9254 26.9595 39.88C27.0515 39.3936 27.1249 39.014 27.1771 38.7473Z" fill="white" stroke="white" stroke-width="1.63881"/>
<path fill-rule="evenodd" clip-rule="evenodd" d="M32.6913 184.773C34.1726 169.459 36.4948 144.713 37.1096 133.879C38.0327 117.619 42.9556 77.8886 42.9556 77.8886H46.8912C46.8912 77.8886 51.814 117.619 52.7371 133.879C53.3524 144.713 55.6741 169.459 57.1559 184.773H68.3256C69.7285 168.953 71.8796 139.554 71.352 112.757C70.5828 73.6978 63.3814 38.1228 63.3814 38.1228L45.1096 31.9529V31.9199L44.9238 31.936L44.7376 31.9199V31.9529L26.4653 38.1228C26.4653 38.1228 19.2643 73.6978 18.4951 112.757C17.9675 139.554 20.1186 168.953 21.5215 184.773H32.6913Z" stroke="#BFBFBF" stroke-width="0.819407"/>
<path fill-rule="evenodd" clip-rule="evenodd" d="M17.0374 63.0631C17.4107 58.5441 18.5472 44.7035 18.5472 40.3377C18.5472 34.806 18.1919 26.6334 18.9025 22.736C19.6126 18.8386 21.626 10.666 21.626 10.666L18.0736 5.38562L9.07424 7.39729C9.07424 7.39729 8.48197 14.061 8.36369 21.479C8.24541 28.8964 6.82429 31.7887 6.82429 39.458C6.82429 45.3064 9.40393 56.4177 10.6136 61.0514L11.4647 66.1998L14.1373 67.063L17.0374 66.8195L17.5672 65.5665L17.0374 63.9321V63.0631Z" fill="white"/>
<path fill-rule="evenodd" clip-rule="evenodd" d="M13.7314 65.4139C14.0218 67.9457 14.4675 71.1553 14.9763 72.4745C16.7309 77.2476 21.6428 81.9017 22.2272 81.7836C22.8121 81.6651 23.0073 80.7976 22.5782 79.6932C22.3701 79.1569 21.6037 78.5492 20.4731 77.0896C19.3428 75.6304 18.7966 74.3284 18.7966 74.3284" fill="white"/>
<path d="M14.9766 72.4745C16.7311 77.2471 21.643 81.9016 22.2274 81.7831C22.8123 81.665 23.0075 80.7971 22.5784 79.6927C22.3703 79.1568 21.6039 78.5491 20.4733 77.0895C19.343 75.6299 18.7968 74.3283 18.7968 74.3283" stroke="#BFBFBF" stroke-width="0.819407"/>
<path fill-rule="evenodd" clip-rule="evenodd" d="M12.915 67.7408C13.2058 70.2099 13.6336 73.188 14.1184 74.4471C15.873 79.2193 20.7852 83.8739 21.3697 83.7558C21.9549 83.6373 22.1493 82.7698 21.7207 81.6653C21.5126 81.1291 20.7462 80.5213 19.6155 79.0617C18.4849 77.6025 17.9395 76.301 17.9395 76.301" fill="white"/>
<path d="M13.4937 71.8369C13.6847 72.9258 13.8957 73.868 14.1184 74.4468C15.8729 79.2194 20.7852 83.8739 21.3697 83.7558C21.9545 83.6373 22.1493 82.7699 21.7207 81.6654C21.5126 81.1291 20.7458 80.5214 19.6151 79.0618C18.4849 77.6026 17.939 76.301 17.939 76.301" stroke="#BFBFBF" stroke-width="0.819407"/>
<path fill-rule="evenodd" clip-rule="evenodd" d="M20.317 85.1756C20.9019 85.0575 21.0967 84.1897 20.668 83.0852C20.4599 82.5489 19.6936 81.9412 18.5625 80.4816C18.0196 79.7806 17.5369 79.0274 17.1323 78.2357C16.724 77.4371 16.9334 76.4873 17.0094 75.6073C17.2034 73.3643 17.5992 71.1393 18.1907 68.969C18.3265 68.4706 18.474 67.97 18.5101 67.4544C18.5471 66.9383 18.464 66.3965 18.1737 65.9708C17.8742 65.5316 17.382 65.2568 16.8715 65.1202C16.3618 64.9836 15.828 64.9706 15.3005 64.9584C14.3231 64.9357 13.092 65.6314 12.1142 65.6087C11.4238 65.5927 11.4188 65.0201 11.4994 65.6892C11.5322 65.9607 11.5505 66.2347 11.5766 66.5067C11.6601 67.3594 11.7515 68.2117 11.8508 69.0628C12.0776 71.0032 12.3044 72.9721 12.77 74.8722C12.8523 75.2093 12.9466 75.5417 13.0662 75.867C14.8203 80.6396 19.7326 85.2941 20.317 85.1756Z" fill="white"/>
<path d="M11.4175 65.291C11.4175 65.291 12.1693 73.5395 13.0665 75.8669C14.8203 80.6396 19.7325 85.2941 20.3174 85.1756C20.9023 85.0575 21.0971 84.1896 20.668 83.0852C20.4599 82.5489 19.6939 81.9412 18.5633 80.482C17.4322 79.0224 16.8868 77.7208 16.8868 77.7208" stroke="#BFBFBF" stroke-width="0.819407"/>
<path fill-rule="evenodd" clip-rule="evenodd" d="M14.4692 70.0289C14.4692 70.0289 15.5218 72.0996 16.3409 73.3424C17.1597 74.5847 17.9779 76.8529 18.4457 77.3657C18.9134 77.8784 20.0835 77.7994 20.317 77.3657C20.5512 76.9315 19.4982 71.0939 19.4982 71.0939C19.4982 71.0939 20.005 69.3981 19.6154 67.9385C19.2253 66.4789 17.3931 65.2958 17.3931 65.2958" fill="white"/>
<path d="M14.4692 70.0289C14.4692 70.0289 15.5218 72.0996 16.3409 73.3424C17.1597 74.5847 17.9779 76.8529 18.4457 77.3656C18.9134 77.8784 20.0835 77.7994 20.317 77.3656C20.5512 76.9315 19.4982 71.0939 19.4982 71.0939C19.4982 71.0939 20.005 69.3981 19.6154 67.9385C19.2253 66.4789 17.3931 65.2958 17.3931 65.2958" stroke="#BFBFBF" stroke-width="0.819407"/>
<path d="M17.5234 65.4138C17.0012 64.8718 17.0374 63.0631 17.0374 63.0631C17.4107 58.5441 18.5472 44.7035 18.5472 40.3377C18.5472 34.806 18.1919 26.6334 18.9025 22.736C19.6126 18.8386 21.626 10.666 21.626 10.666L18.0736 5.38562L9.07424 7.39729C9.07424 7.39729 8.48197 14.061 8.36369 21.479C8.24541 28.8964 6.82429 31.7887 6.82429 39.458C6.82429 45.3064 9.40393 56.4177 10.6136 61.0514L11.4175 65.4138" stroke="#BFBFBF" stroke-width="0.819407"/>
<path fill-rule="evenodd" clip-rule="evenodd" d="M72.8811 63.0631C72.5077 58.5441 71.3713 44.7035 71.3713 40.3377C71.3713 34.806 71.7266 26.6334 71.016 22.736C70.3059 18.8386 68.2925 10.666 68.2925 10.666L71.8448 5.38562L80.8442 7.39729C80.8442 7.39729 81.4365 14.061 81.5548 21.479C81.673 28.8964 83.0942 31.7887 83.0942 39.458C83.0942 45.3064 80.5145 56.4177 79.3048 61.0514L78.4538 66.1998L75.7811 67.063L72.8811 66.8195L72.3513 65.5665L72.8811 63.9321V63.0631Z" fill="white"/>
<path fill-rule="evenodd" clip-rule="evenodd" d="M76.187 65.4139C75.8967 67.9457 75.451 71.1553 74.9421 72.4745C73.1876 77.2476 68.2757 81.9017 67.6913 81.7836C67.1064 81.6651 66.9112 80.7976 67.3403 79.6932C67.5484 79.1569 68.3147 78.5492 69.4454 77.0896C70.5757 75.6304 71.1219 74.3284 71.1219 74.3284" fill="white"/>
<path d="M74.9419 72.4745C73.1873 77.2471 68.2755 81.9016 67.691 81.7831C67.1062 81.665 66.9109 80.7971 67.34 79.6927C67.5481 79.1568 68.3145 78.5491 69.4452 77.0895C70.5754 75.6299 71.1216 74.3283 71.1216 74.3283" stroke="#BFBFBF" stroke-width="0.819407"/>
<path fill-rule="evenodd" clip-rule="evenodd" d="M77.0034 67.7408C76.7127 70.2099 76.2848 73.188 75.8001 74.4471C74.0455 79.2193 69.1332 83.8739 68.5488 83.7558C67.9635 83.6373 67.7691 82.7698 68.1978 81.6653C68.4059 81.1291 69.1723 80.5213 70.3029 79.0617C71.4336 77.6025 71.979 76.301 71.979 76.301" fill="white"/>
<path d="M76.4248 71.8369C76.2337 72.9258 76.0227 73.868 75.8001 74.4468C74.0455 79.2194 69.1332 83.8739 68.5488 83.7558C67.9639 83.6373 67.7691 82.7699 68.1978 81.6654C68.4059 81.1291 69.1727 80.5214 70.3034 79.0618C71.4336 77.6026 71.9794 76.301 71.9794 76.301" stroke="#BFBFBF" stroke-width="0.819407"/>
<path fill-rule="evenodd" clip-rule="evenodd" d="M69.6014 85.1756C69.0166 85.0575 68.8217 84.1897 69.2504 83.0852C69.4585 82.5489 70.2249 81.9412 71.356 80.4816C71.8989 79.7806 72.3815 79.0274 72.7861 78.2357C73.1944 77.4371 72.9851 76.4873 72.9091 75.6073C72.7151 73.3643 72.3192 71.1393 71.7277 68.969C71.5919 68.4706 71.4445 67.97 71.4083 67.4544C71.3713 66.9383 71.4544 66.3965 71.7448 65.9708C72.0443 65.5316 72.5365 65.2568 73.047 65.1202C73.5567 64.9836 74.0904 64.9706 74.618 64.9584C75.5953 64.9357 76.8265 65.6314 77.8043 65.6087C78.4946 65.5927 78.4997 65.0201 78.4191 65.6892C78.3863 65.9607 78.368 66.2347 78.3418 66.5067C78.2583 67.3594 78.167 68.2117 78.0677 69.0628C77.8409 71.0032 77.6141 72.9721 77.1484 74.8722C77.0662 75.2093 76.9719 75.5417 76.8523 75.867C75.0981 80.6396 70.1859 85.2941 69.6014 85.1756Z" fill="white"/>
<path d="M78.501 65.291C78.501 65.291 77.7491 73.5395 76.8519 75.8669C75.0982 80.6396 70.1859 85.2941 69.6011 85.1756C69.0162 85.0575 68.8214 84.1896 69.2505 83.0852C69.4586 82.5489 70.2245 81.9412 71.3552 80.482C72.4863 79.0224 73.0317 77.7208 73.0317 77.7208" stroke="#BFBFBF" stroke-width="0.819407"/>
<path fill-rule="evenodd" clip-rule="evenodd" d="M75.4492 70.0289C75.4492 70.0289 74.3966 72.0996 73.5775 73.3424C72.7588 74.5847 71.9405 76.8529 71.4728 77.3657C71.0051 77.8784 69.835 77.7994 69.6015 77.3657C69.3672 76.9315 70.4202 71.0939 70.4202 71.0939C70.4202 71.0939 69.9135 69.3981 70.3031 67.9385C70.6931 66.4789 72.5254 65.2958 72.5254 65.2958" fill="white"/>
<path d="M75.4492 70.0289C75.4492 70.0289 74.3966 72.0996 73.5775 73.3424C72.7588 74.5847 71.9405 76.8529 71.4728 77.3656C71.0051 77.8784 69.835 77.7994 69.6015 77.3656C69.3672 76.9315 70.4202 71.0939 70.4202 71.0939C70.4202 71.0939 69.9135 69.3981 70.3031 67.9385C70.6931 66.4789 72.5254 65.2958 72.5254 65.2958" stroke="#BFBFBF" stroke-width="0.819407"/>
<path d="M72.3951 65.4138C72.9172 64.8718 72.8811 63.0631 72.8811 63.0631C72.5077 58.5441 71.3713 44.7035 71.3713 40.3377C71.3713 34.806 71.7266 26.6334 71.016 22.736C70.3059 18.8386 68.2925 10.666 68.2925 10.666L71.8448 5.38562L80.8442 7.39729C80.8442 7.39729 81.4365 14.061 81.5548 21.479C81.673 28.8964 83.0942 31.7887 83.0942 39.458C83.0942 45.3064 80.5145 56.4177 79.3048 61.0514L78.5009 65.4138" stroke="#BFBFBF" stroke-width="0.819407"/>
<path d="M23.7566 9.91149C23.539 7.98422 23.4141 8.28832 23.2905 5.80466" stroke="#BFBFBF" stroke-width="0.819407"/>
<path d="M66.1738 9.88009C66.3914 7.95237 66.5163 8.25692 66.6399 5.77325" stroke="#BFBFBF" stroke-width="0.819407"/>
<path d="M82.0143 8.08202C81.991 8.01855 81.966 7.95044 81.9393 7.8779C81.7502 7.36349 81.4778 6.62593 81.145 5.73397C80.4791 3.94973 79.5719 1.54913 78.6057 -0.918373C77.6389 -3.38749 76.6158 -5.91635 75.7177 -7.95975C75.2684 -8.98213 74.8541 -9.87447 74.4965 -10.5735C74.1262 -11.2974 73.8521 -11.7418 73.6892 -11.9279L74.3057 -12.4677L73.6892 -11.928C72.5269 -13.2557 70.9333 -14.1487 69.2474 -14.8118C67.9949 -15.3044 66.7528 -15.6495 65.6252 -15.9627C65.2218 -16.0748 64.833 -16.1828 64.4636 -16.292C63.3693 -16.6156 61.6072 -17.4106 59.8932 -18.24C58.1587 -19.0793 56.4076 -19.9867 55.3065 -20.5662C55.2326 -20.6048 55.1371 -20.569 55.1137 -20.4733L55.1136 -20.473C54.7974 -19.1849 54.0879 -17.1184 52.5408 -15.3613C50.9689 -13.5763 48.5657 -12.1525 44.9837 -12.1515L44.9832 -12.1515C41.401 -12.1525 38.9977 -13.5763 37.4258 -15.3613C35.8786 -17.1184 35.1691 -19.1849 34.8529 -20.473L34.8528 -20.4733C34.8293 -20.5691 34.7336 -20.6049 34.6597 -20.5661C33.5588 -19.9865 31.8078 -19.0792 30.0734 -18.24C28.3594 -17.4106 26.5972 -16.6156 25.5029 -16.292C25.1336 -16.1828 24.7448 -16.0748 24.3413 -15.9627C23.2137 -15.6495 21.9717 -15.3044 20.7191 -14.8118C19.0332 -14.1487 17.4396 -13.2557 16.2773 -11.928L16.2773 -11.9279C16.1144 -11.7418 15.8403 -11.2974 15.47 -10.5735C15.1124 -9.87447 14.6981 -8.98213 14.2488 -7.95975C13.3507 -5.91635 12.3276 -3.38749 11.3608 -0.918373C10.3946 1.54913 9.48737 3.94973 8.82154 5.73397C8.48869 6.62593 8.21629 7.36349 8.02716 7.8779C8.00049 7.95044 7.97548 8.01855 7.95218 8.08202C8.04775 8.14559 8.15483 8.21641 8.27213 8.29338C8.79983 8.63967 9.5323 9.10923 10.3519 9.60275C12.0207 10.6076 13.9517 11.6502 15.2593 12.0145C16.634 12.3974 18.1434 12.6428 19.3212 12.7923C19.9075 12.8668 20.4059 12.9168 20.7569 12.9481C20.778 12.95 20.7985 12.9518 20.8185 12.9536L22.9426 9.5141L22.9453 9.50971C23.1651 9.15881 23.5676 9.04008 23.9043 9.1273C24.25 9.21684 24.5593 9.53555 24.5558 9.97647C24.5558 9.97661 24.5558 9.97675 24.5558 9.97689L23.7364 9.9701C23.7364 9.98098 23.7363 9.99234 23.7362 10.0042L82.0143 8.08202ZM82.0143 8.08202C81.9188 8.14559 81.8117 8.21641 81.6944 8.29338C81.1667 8.63967 80.4342 9.10923 79.6146 9.60275C77.9458 10.6076 76.0148 11.6502 74.7072 12.0145C73.3326 12.3974 71.8232 12.6428 70.6455 12.7923C70.0593 12.8668 69.5609 12.9168 69.2099 12.9481C69.1889 12.95 69.1683 12.9518 69.1483 12.9536L66.9697 9.42709C66.7721 9.10408 66.4023 8.97123 66.0717 9.04305C65.7207 9.11931 65.4098 9.4332 65.4097 9.86472L65.4098 9.87206C65.4182 10.8066 65.498 20.0072 65.498 31.9131C65.498 38.236 66.1095 47.0987 66.7183 54.3611C67.0231 57.9964 67.3278 61.2382 67.5564 63.5711C67.6707 64.7377 67.7659 65.6772 67.8326 66.3253C67.844 66.4356 67.8545 66.5375 67.8641 66.6306C67.8668 66.6566 67.8695 66.682 67.872 66.7066C67.7051 66.7658 67.4981 66.8356 67.2489 66.9138C66.4162 67.175 65.1127 67.529 63.2621 67.8849C59.5606 68.5967 53.6716 69.3158 44.987 69.3158C36.3024 69.3158 30.4115 68.5967 26.7081 67.8849C24.8566 67.529 23.552 67.175 22.7186 66.9138C22.4688 66.8355 22.2613 66.7655 22.0941 66.7063L82.0143 8.08202ZM22.9171 9.9633L22.9171 9.96373C22.9171 9.96358 22.9171 9.96345 22.9171 9.9633Z" fill="white" stroke="white" stroke-width="1.63881"/>
<path fill-rule="evenodd" clip-rule="evenodd" d="M74.3057 -12.4677C71.7375 -15.4015 67.3881 -16.2816 64.696 -17.0778C62.6561 -17.681 57.883 -20.1361 55.6882 -21.2913C55.1387 -21.5802 54.467 -21.277 54.3178 -20.6684C53.7172 -18.2218 51.6512 -12.9727 44.9835 -12.9709C38.3153 -12.9727 36.2493 -18.2218 35.6487 -20.6684C35.4995 -21.277 34.8278 -21.5802 34.2783 -21.2913C32.084 -20.1361 27.3104 -17.681 25.2705 -17.0778C22.5784 -16.2816 18.229 -15.4015 15.6608 -12.4677C13.7573 -10.2935 6.9624 8.40274 6.9624 8.40274C6.9624 8.40274 12.1817 12.0077 15.0394 12.8038C17.8975 13.6 21.253 13.8095 21.253 13.8095L23.6398 9.94465C23.668 9.89955 23.7369 9.91696 23.7364 9.9701C23.7259 11.332 23.6601 20.1177 23.6601 31.6613C23.6601 44.2354 21.2142 67.2439 21.2142 67.2439C21.2142 67.2439 27.528 70.1352 44.987 70.1352C62.446 70.1352 68.7523 67.2439 68.7523 67.2439C68.7523 67.2439 66.3174 44.4841 66.3174 31.9131C66.3174 20.0039 66.2376 10.8007 66.2292 9.86472C66.2292 9.8415 66.2592 9.83525 66.2711 9.85534L68.7139 13.8095C68.7139 13.8095 72.069 13.6 74.9271 12.8038C77.7848 12.0077 83.0041 8.40274 83.0041 8.40274C83.0041 8.40274 76.2092 -10.2935 74.3057 -12.4677Z" stroke="#BFBFBF" stroke-width="0.819407"/>
<path fill-rule="evenodd" clip-rule="evenodd" d="M76.187 65.4139C75.8967 67.9457 75.451 71.1553 74.9421 72.4745C73.1876 77.2476 68.2757 81.9017 67.6913 81.7836C67.1064 81.6651 66.9112 80.7976 67.3403 79.6932C67.5484 79.1569 68.3147 78.5492 69.4454 77.0896C70.5756 75.6304 71.1219 74.3284 71.1219 74.3284" fill="white"/>
<path d="M74.9419 72.4745C73.1873 77.2471 68.2755 81.9016 67.691 81.7831C67.1062 81.665 66.9109 80.7971 67.34 79.6927C67.5481 79.1568 68.3145 78.5491 69.4452 77.0895C70.5754 75.6299 71.1216 74.3283 71.1216 74.3283" stroke="#BFBFBF" stroke-width="0.819407"/>
<path fill-rule="evenodd" clip-rule="evenodd" d="M77.0034 67.7408C76.7127 70.21 76.2848 73.188 75.8001 74.4472C74.0455 79.2194 69.1332 83.8739 68.5488 83.7558C67.9635 83.6373 67.7691 82.7698 68.1978 81.6654C68.4059 81.1291 69.1723 80.5214 70.3029 79.0618C71.4336 77.6026 71.979 76.301 71.979 76.301" fill="white"/>
<path d="M76.4243 71.8369C76.2332 72.9258 76.0222 73.868 75.7996 74.4468C74.045 79.2194 69.1327 83.8739 68.5483 83.7558C67.9634 83.6373 67.7686 82.7699 68.1973 81.6654C68.4054 81.1291 69.1722 80.5214 70.3029 79.0618C71.4331 77.6026 71.9789 76.301 71.9789 76.301" stroke="#BFBFBF" stroke-width="0.819407"/>
<path fill-rule="evenodd" clip-rule="evenodd" d="M69.6014 85.1756C69.0166 85.0575 68.8217 84.1897 69.2504 83.0852C69.4585 82.5489 70.2249 81.9412 71.356 80.4816C71.8989 79.7806 72.3815 79.0275 72.7861 78.2357C73.1944 77.4371 72.9851 76.4873 72.9091 75.6073C72.7151 73.3643 72.3192 71.1393 71.7277 68.969C71.5919 68.4706 71.4444 67.9701 71.4083 67.4544C71.3713 66.9383 71.4544 66.3965 71.7448 65.9708C72.0443 65.5316 72.5365 65.2568 73.047 65.1202C73.5567 64.9836 74.0904 64.9706 74.6179 64.9584C75.5953 64.9357 76.8265 65.6314 77.8043 65.6087C78.4946 65.5927 78.4997 65.0201 78.4191 65.6892C78.3863 65.9607 78.368 66.2347 78.3418 66.5067C78.2583 67.3594 78.167 68.2117 78.0677 69.0628C77.8409 71.0032 77.6141 72.9721 77.1484 74.8722C77.0662 75.2093 76.9719 75.5417 76.8523 75.867C75.0981 80.6396 70.1858 85.2942 69.6014 85.1756Z" fill="white"/>
<path d="M78.501 65.291C78.501 65.291 77.7491 73.5395 76.8519 75.8669C75.0982 80.6396 70.1859 85.2941 69.6011 85.1756C69.0162 85.0575 68.8214 84.1896 69.2505 83.0852C69.4586 82.5489 70.2245 81.9412 71.3552 80.482C72.4863 79.0224 73.0317 77.7208 73.0317 77.7208" stroke="#BFBFBF" stroke-width="0.819407"/>
<path fill-rule="evenodd" clip-rule="evenodd" d="M75.4492 70.0293C75.4492 70.0293 74.3966 72.1 73.5775 73.3428C72.7588 74.5851 71.9405 76.8533 71.4728 77.366C71.0051 77.8788 69.8349 77.7998 69.6015 77.366C69.3672 76.9319 70.4202 71.0943 70.4202 71.0943C70.4202 71.0943 69.9135 69.3985 70.3031 67.9389C70.6931 66.4793 72.5254 65.2962 72.5254 65.2962" fill="white"/>
<path d="M75.4492 70.0293C75.4492 70.0293 74.3966 72.1 73.5775 73.3428C72.7588 74.5851 71.9405 76.8533 71.4728 77.366C71.0051 77.8788 69.8349 77.7998 69.6015 77.366C69.3672 76.9319 70.4202 71.0943 70.4202 71.0943C70.4202 71.0943 69.9135 69.3985 70.3031 67.9389C70.6931 66.4793 72.5254 65.2962 72.5254 65.2962" stroke="#BFBFBF" stroke-width="0.819407"/>
<g clip-path="url(#clip1_718_33919)">
<path d="M67.7483 42.6175C68.125 42.9553 68.3239 43.3068 68.3239 43.6678C68.3239 46.2544 59.2121 48.3576 46.5293 48.4043" stroke="#3483FA" stroke-width="0.95" stroke-linecap="round"/>
<path d="M22.4178 42.7941C22.5661 42.6598 22.6075 42.385 22.5103 42.1802C22.413 41.9755 22.214 41.9183 22.0656 42.0525L22.4178 42.7941ZM44.2749 48.7204C44.4007 48.5478 44.4012 48.2671 44.2761 48.0935L42.238 45.2646C42.1129 45.091 41.9095 45.0903 41.7838 45.263C41.658 45.4356 41.6575 45.7163 41.7826 45.8899L43.5943 48.4045L41.7729 50.9057C41.6472 51.0783 41.6466 51.359 41.7717 51.5326C41.8968 51.7062 42.1001 51.7069 42.2259 51.5343L44.2749 48.7204ZM21.9972 43.4647C21.9972 43.3437 22.0678 43.1108 22.4178 42.7941L22.0656 42.0525C21.6752 42.406 21.355 42.8701 21.355 43.4647H21.9972ZM44.0493 47.9628C37.7195 47.9395 32.1444 47.3517 28.1581 46.4504C26.1625 45.9992 24.5794 45.4724 23.5024 44.9071C22.9621 44.6235 22.5677 44.3396 22.3142 44.0677C22.0539 43.7885 21.9972 43.5838 21.9972 43.4647H21.355C21.355 43.9922 21.6011 44.4256 21.9202 44.7678C22.2462 45.1175 22.7079 45.4386 23.2741 45.7359C24.4102 46.3322 26.0422 46.8704 28.0543 47.3254C32.0835 48.2364 37.6945 48.8261 44.0476 48.8494L44.0493 47.9628Z" fill="#3483FA"/>
<path d="M23.4595 41.8496C26.9727 40.1371 35.2938 38.9333 44.9994 38.9333C54.7012 38.9333 63.0197 40.1362 66.5352 41.8476" stroke="#4189E6" stroke-opacity="0.4" stroke-width="0.51" stroke-linecap="round" stroke-dasharray="2.94 2.94"/>
</g>
</g>
<defs>
<clipPath id="clip0_718_33919">
<rect width="90" height="96" fill="white"/>
</clipPath>
<clipPath id="clip1_718_33919">
<rect width="48" height="14" fill="white" transform="translate(21 38)"/>
</clipPath>
</defs>
</svg>
