<svg width="90" height="96" viewBox="0 0 90 96" fill="none" xmlns="http://www.w3.org/2000/svg">
<g clip-path="url(#clip0_718_33925)">
<path fill-rule="evenodd" clip-rule="evenodd" d="M32.6913 247.773C34.1726 232.459 36.4948 207.713 37.1096 196.879C38.0327 180.619 42.9556 140.889 42.9556 140.889H46.8912C46.8912 140.889 51.814 180.619 52.7371 196.879C53.3524 207.713 55.6741 232.459 57.1559 247.773H68.3256C69.7285 231.953 71.8796 202.554 71.352 175.757C70.5828 136.698 63.3814 101.123 63.3814 101.123L45.1096 94.9529V94.9199L44.9238 94.936L44.7376 94.9199V94.9529L26.4653 101.123C26.4653 101.123 19.2643 136.698 18.4951 175.757C17.9675 202.554 20.1186 231.953 21.5215 247.773H32.6913Z" fill="white"/>
<path d="M27.1771 101.747L44.9155 95.7577L44.9239 95.7584L44.9317 95.7577L62.6697 101.747C62.7218 102.014 62.7952 102.394 62.8872 102.88C63.0849 103.925 63.3685 105.464 63.7114 107.432C64.3971 111.37 65.3198 117.027 66.2665 123.904C68.1603 137.661 70.149 156.286 70.5327 175.773C71.0513 202.109 68.9777 230.977 67.5753 246.953H57.8999C56.4155 231.588 54.1595 207.474 53.5552 196.833C53.0922 188.676 51.628 174.656 50.2823 162.695C49.6089 156.71 48.9645 151.233 48.4884 147.253C48.2503 145.263 48.0544 143.647 47.9179 142.528C47.8496 141.969 47.7963 141.534 47.76 141.239L47.7185 140.903L47.7079 140.817L47.7053 140.795L47.7046 140.79L47.7044 140.788C47.7044 140.788 47.7044 140.788 46.8912 140.889L47.7044 140.788L47.6153 140.069H46.8912H42.9556H42.2314L42.1424 140.788L42.9556 140.889C42.1424 140.788 42.1423 140.788 42.1423 140.788L42.1421 140.79L42.1415 140.795L42.1388 140.817L42.1282 140.903L42.0868 141.239C42.0505 141.534 41.9971 141.969 41.9288 142.528C41.7924 143.647 41.5964 145.263 41.3583 147.253C40.8822 151.233 40.2378 156.71 39.5645 162.695C38.2188 174.656 36.7545 188.676 36.2915 196.833C35.6876 207.474 33.4312 231.588 31.9472 246.953H22.2718C20.8695 230.977 18.7959 202.109 19.3144 175.773C19.6981 156.286 21.6867 137.661 23.5804 123.904C24.5271 117.027 25.4497 111.37 26.1354 107.432C26.4782 105.464 26.7618 103.925 26.9595 102.88C27.0515 102.394 27.1249 102.014 27.1771 101.747Z" fill="white" stroke="white" stroke-width="1.63881"/>
<path fill-rule="evenodd" clip-rule="evenodd" d="M32.6913 247.773C34.1726 232.459 36.4948 207.713 37.1096 196.879C38.0327 180.619 42.9556 140.889 42.9556 140.889H46.8912C46.8912 140.889 51.814 180.619 52.7371 196.879C53.3524 207.713 55.6741 232.459 57.1559 247.773H68.3256C69.7285 231.953 71.8796 202.554 71.352 175.757C70.5828 136.698 63.3814 101.123 63.3814 101.123L45.1096 94.9529V94.9199L44.9238 94.936L44.7376 94.9199V94.9529L26.4653 101.123C26.4653 101.123 19.2643 136.698 18.4951 175.757C17.9675 202.554 20.1186 231.953 21.5215 247.773H32.6913Z" stroke="#BFBFBF" stroke-width="0.819407"/>
<path fill-rule="evenodd" clip-rule="evenodd" d="M17.0374 126.063C17.4107 121.544 18.5472 107.704 18.5472 103.338C18.5472 97.8059 18.1919 89.6333 18.9025 85.7359C19.6126 81.8385 21.626 73.6659 21.626 73.6659L18.0736 68.3856L9.07424 70.3973C9.07424 70.3973 8.48197 77.061 8.36369 84.4789C8.24541 91.8964 6.82429 94.7887 6.82429 102.458C6.82429 108.306 9.40393 119.418 10.6136 124.051L11.4647 129.2L14.1373 130.063L17.0374 129.82L17.5672 128.567L17.0374 126.932V126.063Z" fill="white"/>
<path d="M17.5234 128.414C17.0012 127.872 17.0374 126.063 17.0374 126.063C17.4107 121.544 18.5472 107.704 18.5472 103.338C18.5472 97.8059 18.1919 89.6333 18.9025 85.7359C19.6126 81.8385 21.626 73.6659 21.626 73.6659L18.0736 68.3856L9.07424 70.3973C9.07424 70.3973 8.48197 77.061 8.36369 84.4789C8.24541 91.8964 6.82429 94.7887 6.82429 102.458C6.82429 108.306 9.40393 119.418 10.6136 124.051L11.4175 128.414" stroke="#BFBFBF" stroke-width="0.819407"/>
<path fill-rule="evenodd" clip-rule="evenodd" d="M56.7642 43.8436L55.2809 42.9192C52.9034 41.543 51.4478 39.0562 51.4478 36.372V30.9564L44.8348 31.0194L38.2222 30.9564V36.372C38.2222 39.0562 36.7662 41.543 34.3891 42.9192L32.9058 43.8436L35.2396 50.004L44.8339 52.8954V52.8958L44.8348 52.8954L44.8361 52.8958V52.8954L54.43 50.004L56.7642 43.8436Z" fill="white"/>
<path fill-rule="evenodd" clip-rule="evenodd" d="M56.7642 43.8436L55.2809 42.9192C52.9034 41.543 51.4478 39.0562 51.4478 36.372V30.9564L44.8348 31.0194L38.2222 30.9564V36.372C38.2222 39.0562 36.7662 41.543 34.3891 42.9192L32.9058 43.8436L35.2396 50.004L44.8339 52.8954V52.8958L44.8348 52.8954L44.8361 52.8958V52.8954L54.43 50.004L56.7642 43.8436Z" stroke="#BFBFBF" stroke-width="0.819407"/>
<path fill-rule="evenodd" clip-rule="evenodd" d="M72.8811 126.063C72.5077 121.544 71.3713 107.704 71.3713 103.338C71.3713 97.8059 71.7266 89.6333 71.016 85.7359C70.3059 81.8385 68.2925 73.6659 68.2925 73.6659L71.8448 68.3856L80.8442 70.3973C80.8442 70.3973 81.4365 77.061 81.5548 84.4789C81.673 91.8964 83.0942 94.7887 83.0942 102.458C83.0942 108.306 80.5145 119.418 79.3048 124.051L78.4538 129.2L75.7811 130.063L72.8811 129.82L72.3513 128.567L72.8811 126.932V126.063Z" fill="white"/>
<path d="M72.3951 128.414C72.9172 127.872 72.8811 126.063 72.8811 126.063C72.5077 121.544 71.3713 107.704 71.3713 103.338C71.3713 97.8059 71.7266 89.6333 71.016 85.7359C70.3059 81.8385 68.2925 73.6659 68.2925 73.6659L71.8448 68.3856L80.8442 70.3973C80.8442 70.3973 81.4365 77.061 81.5548 84.4789C81.673 91.8964 83.0942 94.7887 83.0942 102.458C83.0942 108.306 80.5145 119.418 79.3048 124.051L78.5009 128.414" stroke="#BFBFBF" stroke-width="0.819407"/>
<path d="M23.7566 72.9115C23.539 70.9842 23.4141 71.2883 23.2905 68.8047" stroke="#BFBFBF" stroke-width="0.819407"/>
<path d="M66.1738 72.8801C66.3914 70.9524 66.5163 71.2569 66.6399 68.7733" stroke="#BFBFBF" stroke-width="0.819407"/>
<path d="M82.0143 71.082C81.991 71.0185 81.966 70.9504 81.9393 70.8779C81.7502 70.3635 81.4778 69.6259 81.145 68.734C80.4791 66.9497 79.5719 64.5491 78.6057 62.0816C77.6389 59.6125 76.6158 57.0837 75.7177 55.0403C75.2684 54.0179 74.8541 53.1255 74.4965 52.4265C74.1262 51.7026 73.8521 51.2582 73.6892 51.0721L74.3057 50.5323L73.6892 51.072C72.5269 49.7443 70.9333 48.8513 69.2474 48.1882C67.9949 47.6956 66.7528 47.3505 65.6252 47.0373C65.2218 46.9252 64.833 46.8172 64.4636 46.708C63.3693 46.3844 61.6072 45.5894 59.8932 44.76C58.1587 43.9207 56.4076 43.0133 55.3065 42.4338C55.2326 42.3952 55.1371 42.431 55.1137 42.5267L55.1136 42.527C54.7974 43.8151 54.0879 45.8816 52.5408 47.6387C50.9689 49.4237 48.5657 50.8475 44.9837 50.8485L44.9832 50.8485C41.401 50.8475 38.9977 49.4237 37.4258 47.6387C35.8786 45.8816 35.1691 43.8151 34.8529 42.527L34.8528 42.5267C34.8293 42.4309 34.7336 42.3951 34.6597 42.4339C33.5588 43.0135 31.8078 43.9208 30.0734 44.76C28.3594 45.5894 26.5972 46.3844 25.5029 46.708C25.1336 46.8172 24.7448 46.9252 24.3413 47.0373C23.2137 47.3505 21.9717 47.6956 20.7191 48.1882C19.0332 48.8513 17.4396 49.7443 16.2773 51.072L16.2773 51.0721C16.1144 51.2582 15.8403 51.7026 15.47 52.4265C15.1124 53.1255 14.6981 54.0179 14.2488 55.0402C13.3507 57.0837 12.3276 59.6125 11.3608 62.0816C10.3946 64.5491 9.48737 66.9497 8.82154 68.734C8.48869 69.6259 8.21629 70.3635 8.02716 70.8779C8.00049 70.9504 7.97548 71.0185 7.95218 71.082C8.04775 71.1456 8.15483 71.2164 8.27213 71.2934C8.79983 71.6397 9.5323 72.1092 10.3519 72.6027C12.0207 73.6076 13.9517 74.6502 15.2593 75.0145C16.634 75.3974 18.1434 75.6428 19.3212 75.7923C19.9075 75.8668 20.4059 75.9168 20.7569 75.9481C20.778 75.95 20.7985 75.9518 20.8185 75.9536L22.9426 72.5141L22.9453 72.5097C23.1651 72.1588 23.5676 72.0401 23.9043 72.1273C24.25 72.2168 24.5593 72.5355 24.5558 72.9765C24.5558 72.9766 24.5558 72.9768 24.5558 72.9769L23.7364 72.9701C23.7364 72.981 23.7363 72.9923 23.7362 73.0042L82.0143 71.082ZM82.0143 71.082C81.9188 71.1456 81.8117 71.2164 81.6944 71.2934C81.1667 71.6397 80.4342 72.1092 79.6146 72.6027C77.9458 73.6076 76.0148 74.6502 74.7072 75.0145C73.3326 75.3974 71.8232 75.6428 70.6455 75.7923C70.0593 75.8668 69.5609 75.9168 69.2099 75.9481C69.1889 75.95 69.1683 75.9518 69.1483 75.9536L66.9697 72.4271C66.7721 72.1041 66.4023 71.9712 66.0717 72.0431C65.7207 72.1193 65.4098 72.4332 65.4097 72.8647L65.4098 72.8721C65.4182 73.8066 65.498 83.0072 65.498 94.9131C65.498 101.236 66.1095 110.099 66.7183 117.361C67.0231 120.996 67.3278 124.238 67.5564 126.571C67.6707 127.738 67.7659 128.677 67.8326 129.325C67.844 129.436 67.8545 129.537 67.8641 129.631C67.8668 129.657 67.8695 129.682 67.872 129.707C67.7051 129.766 67.4981 129.836 67.2489 129.914C66.4162 130.175 65.1127 130.529 63.2621 130.885C59.5606 131.597 53.6716 132.316 44.987 132.316C36.3024 132.316 30.4115 131.597 26.7081 130.885C24.8566 130.529 23.552 130.175 22.7186 129.914C22.4688 129.835 22.2613 129.765 22.0941 129.706L82.0143 71.082ZM22.9171 72.9633L22.9171 72.9637C22.9171 72.9636 22.9171 72.9634 22.9171 72.9633Z" fill="white" stroke="white" stroke-width="1.63881"/>
<path fill-rule="evenodd" clip-rule="evenodd" d="M74.3057 50.5323C71.7375 47.5985 67.3881 46.7184 64.696 45.9222C62.6561 45.319 57.883 42.8639 55.6882 41.7087C55.1387 41.4198 54.467 41.723 54.3178 42.3316C53.7172 44.7782 51.6512 50.0273 44.9835 50.0291C38.3153 50.0273 36.2493 44.7782 35.6487 42.3316C35.4995 41.723 34.8278 41.4198 34.2783 41.7087C32.084 42.8639 27.3104 45.319 25.2705 45.9222C22.5784 46.7184 18.229 47.5985 15.6608 50.5323C13.7573 52.7065 6.9624 71.4027 6.9624 71.4027C6.9624 71.4027 12.1817 75.0077 15.0394 75.8038C17.8975 76.6 21.253 76.8095 21.253 76.8095L23.6398 72.9446C23.668 72.8995 23.7369 72.917 23.7364 72.9701C23.7259 74.332 23.6601 83.1177 23.6601 94.6613C23.6601 107.235 21.2142 130.244 21.2142 130.244C21.2142 130.244 27.528 133.135 44.987 133.135C62.446 133.135 68.7523 130.244 68.7523 130.244C68.7523 130.244 66.3174 107.484 66.3174 94.9131C66.3174 83.0039 66.2376 73.8007 66.2292 72.8647C66.2292 72.8415 66.2592 72.8352 66.2711 72.8553L68.7139 76.8095C68.7139 76.8095 72.069 76.6 74.9271 75.8038C77.7848 75.0077 83.0041 71.4027 83.0041 71.4027C83.0041 71.4027 76.2092 52.7065 74.3057 50.5323Z" stroke="#BFBFBF" stroke-width="0.819407"/>
<path fill-rule="evenodd" clip-rule="evenodd" d="M33.08 17.6937C32.6179 17.3374 31.9118 16.9511 31.2056 17.1726C30.0047 17.55 30.0047 20.903 30.6257 22.411C31.2471 23.9199 32.9869 25.0934 33.5668 25.0934" fill="white"/>
<path fill-rule="evenodd" clip-rule="evenodd" d="M57.4084 17.6937C57.8343 17.3374 58.4848 16.9511 59.1358 17.1726C60.2431 17.55 60.2431 20.903 59.6702 22.411C59.0978 23.9199 57.4944 25.0934 56.96 25.0934" fill="white"/>
<path d="M57.4084 17.6937C57.8343 17.3374 58.4848 16.9511 59.1358 17.1726C60.2431 17.55 60.2431 20.903 59.6702 22.411C59.0978 23.9199 57.4944 25.0934 56.96 25.0934" stroke="#BFBFBF" stroke-width="0.819407"/>
<path d="M33.08 17.6937C32.6179 17.3374 31.9118 16.9511 31.2056 17.1726C30.0047 17.55 30.0047 20.903 30.6257 22.411C31.2471 23.9199 32.9869 25.0934 33.5668 25.0934" stroke="#BFBFBF" stroke-width="0.819407"/>
<path fill-rule="evenodd" clip-rule="evenodd" d="M32.875 15.8164L33.511 25.702C33.6633 27.7717 34.4842 29.7338 35.8563 31.2788C38.4695 34.2233 42.8626 38.728 45.2674 38.728C47.6626 38.728 52.0261 34.2586 54.6406 31.3136C56.0317 29.7476 56.8544 27.752 56.9895 25.6524L57.568 15.8164C57.568 15.8164 58.3845 1.03772 45.1893 1.03772C31.9937 1.03772 32.875 15.8164 32.875 15.8164Z" fill="white"/>
<path fill-rule="evenodd" clip-rule="evenodd" d="M32.875 15.8164L33.511 25.702C33.6633 27.7717 34.4842 29.7338 35.8563 31.2788C38.4695 34.2233 42.8626 38.728 45.2674 38.728C47.6626 38.728 52.0261 34.2586 54.6406 31.3136C56.0317 29.7476 56.8544 27.752 56.9895 25.6524L57.568 15.8164C57.568 15.8164 58.3845 1.03772 45.1893 1.03772C31.9937 1.03772 32.875 15.8164 32.875 15.8164Z" stroke="#BFBFBF" stroke-width="0.819407"/>
<path d="M58.6601 42.3592C58.8825 42.5496 58.9998 42.7477 58.9998 42.9511C58.9998 44.4088 53.8657 45.594 46.3794 45.6203" stroke="#3483FA" stroke-width="0.95" stroke-linecap="round"/>
<path d="M32.1093 42.6091C32.3078 42.4376 32.3296 42.1376 32.1581 41.9391C31.9866 41.7406 31.6866 41.7188 31.4881 41.8903L32.1093 42.6091ZM45.0052 45.9584C45.1914 45.7736 45.1924 45.4728 45.0076 45.2867L41.9954 42.2532C41.8105 42.067 41.5098 42.066 41.3236 42.2508C41.1375 42.4357 41.1364 42.7364 41.3212 42.9226L43.9988 45.619L41.3024 48.2966C41.1162 48.4814 41.1152 48.7822 41.3 48.9683C41.4849 49.1544 41.7856 49.1555 41.9718 48.9707L45.0052 45.9584ZM31.9398 42.8366C31.9398 42.8303 31.9421 42.7535 32.1093 42.6091L31.4881 41.8903C31.2182 42.1236 30.9898 42.4396 30.9898 42.8366H31.9398ZM44.6722 45.1464C40.952 45.1333 37.6852 44.8033 35.3606 44.3014C34.1945 44.0497 33.2899 43.7598 32.6883 43.4583C32.3866 43.3071 32.185 43.1647 32.0651 43.0418C31.946 42.9199 31.9398 42.8527 31.9398 42.8366H30.9898C30.9898 43.1849 31.1624 43.4772 31.3854 43.7055C31.6074 43.9329 31.9112 44.1315 32.2627 44.3076C32.9674 44.6608 33.9606 44.9711 35.1601 45.2301C37.5668 45.7496 40.9028 46.0831 44.6689 46.0964L44.6722 45.1464Z" fill="#3483FA"/>
<path d="M32.5181 41.9265C34.5918 40.9614 39.5035 40.283 45.2324 40.283C50.9591 40.283 55.8692 40.9609 57.9443 41.9254" stroke="#4189E6" stroke-opacity="0.4" stroke-width="0.51" stroke-linecap="round" stroke-dasharray="3.44 3.44"/>
</g>
<defs>
<clipPath id="clip0_718_33925">
<rect width="90" height="96" fill="white"/>
</clipPath>
</defs>
</svg>
