<svg width="90" height="96" viewBox="0 0 90 96" fill="none" xmlns="http://www.w3.org/2000/svg">
<g clip-path="url(#clip0_718_33913)">
<path fill-rule="evenodd" clip-rule="evenodd" d="M32.6913 224.773C34.1726 209.459 36.4948 184.713 37.1096 173.879C38.0327 157.619 42.9556 117.889 42.9556 117.889H46.8912C46.8912 117.889 51.814 157.619 52.7371 173.879C53.3524 184.713 55.6741 209.459 57.1559 224.773H68.3256C69.7285 208.953 71.8796 179.554 71.352 152.757C70.5828 113.698 63.3814 78.1228 63.3814 78.1228L45.1096 71.9529V71.9199L44.9238 71.936L44.7376 71.9199V71.9529L26.4653 78.1228C26.4653 78.1228 19.2643 113.698 18.4951 152.757C17.9675 179.554 20.1186 208.953 21.5215 224.773H32.6913Z" fill="white"/>
<path d="M27.1771 78.7473L44.9155 72.7577L44.9239 72.7584L44.9317 72.7577L62.6697 78.7473C62.7218 79.014 62.7952 79.3936 62.8872 79.88C63.0849 80.9254 63.3685 82.4637 63.7114 84.4323C64.3971 88.3696 65.3198 94.0273 66.2665 100.904C68.1603 114.661 70.149 133.286 70.5327 152.773C71.0513 179.109 68.9777 207.977 67.5753 223.953H57.8999C56.4155 208.588 54.1595 184.474 53.5552 173.833C53.0922 165.676 51.628 151.656 50.2823 139.695C49.6089 133.71 48.9645 128.233 48.4884 124.253C48.2503 122.263 48.0544 120.647 47.9179 119.528C47.8496 118.969 47.7963 118.534 47.76 118.239L47.7185 117.903L47.7079 117.817L47.7053 117.795L47.7046 117.79L47.7044 117.788C47.7044 117.788 47.7044 117.788 46.8912 117.889L47.7044 117.788L47.6153 117.069H46.8912H42.9556H42.2314L42.1424 117.788L42.9556 117.889C42.1424 117.788 42.1423 117.788 42.1423 117.788L42.1421 117.79L42.1415 117.795L42.1388 117.817L42.1282 117.903L42.0868 118.239C42.0505 118.534 41.9971 118.969 41.9288 119.528C41.7924 120.647 41.5964 122.263 41.3583 124.253C40.8822 128.233 40.2378 133.71 39.5645 139.695C38.2188 151.656 36.7545 165.676 36.2915 173.833C35.6876 184.474 33.4312 208.588 31.9472 223.953H22.2718C20.8695 207.977 18.7959 179.109 19.3144 152.773C19.6981 133.286 21.6867 114.661 23.5804 100.904C24.5271 94.0273 25.4497 88.3696 26.1354 84.4323C26.4782 82.4637 26.7618 80.9254 26.9595 79.88C27.0515 79.3936 27.1249 79.014 27.1771 78.7473Z" fill="white" stroke="white" stroke-width="1.63881"/>
<path fill-rule="evenodd" clip-rule="evenodd" d="M32.6913 224.773C34.1726 209.459 36.4948 184.713 37.1096 173.879C38.0327 157.619 42.9556 117.889 42.9556 117.889H46.8912C46.8912 117.889 51.814 157.619 52.7371 173.879C53.3524 184.713 55.6741 209.459 57.1559 224.773H68.3256C69.7285 208.953 71.8796 179.554 71.352 152.757C70.5828 113.698 63.3814 78.1228 63.3814 78.1228L45.1096 71.9529V71.9199L44.9238 71.936L44.7376 71.9199V71.9529L26.4653 78.1228C26.4653 78.1228 19.2643 113.698 18.4951 152.757C17.9675 179.554 20.1186 208.953 21.5215 224.773H32.6913Z" stroke="#BFBFBF" stroke-width="0.819407"/>
<path fill-rule="evenodd" clip-rule="evenodd" d="M17.0374 103.063C17.4107 98.5441 18.5472 84.7035 18.5472 80.3377C18.5472 74.806 18.1919 66.6334 18.9025 62.736C19.6126 58.8386 21.626 50.666 21.626 50.666L18.0736 45.3856L9.07424 47.3973C9.07424 47.3973 8.48197 54.061 8.36369 61.479C8.24541 68.8964 6.82429 71.7887 6.82429 79.458C6.82429 85.3064 9.40393 96.4177 10.6136 101.051L11.4647 106.2L14.1373 107.063L17.0374 106.82L17.5672 105.567L17.0374 103.932V103.063Z" fill="white"/>
<path d="M17.5234 105.414C17.0012 104.872 17.0374 103.063 17.0374 103.063C17.4107 98.5441 18.5472 84.7035 18.5472 80.3377C18.5472 74.806 18.1919 66.6334 18.9025 62.736C19.6126 58.8386 21.626 50.666 21.626 50.666L18.0736 45.3856L9.07424 47.3973C9.07424 47.3973 8.48197 54.061 8.36369 61.479C8.24541 68.8964 6.82429 71.7887 6.82429 79.458C6.82429 85.3064 9.40393 96.4177 10.6136 101.051L11.4175 105.414" stroke="#BFBFBF" stroke-width="0.819407"/>
<path fill-rule="evenodd" clip-rule="evenodd" d="M56.7642 20.8436L55.2809 19.9193C52.9034 18.543 51.4478 16.0562 51.4478 13.3721V7.95642L44.8348 8.01938L38.2222 7.95642V13.3721C38.2222 16.0562 36.7662 18.543 34.3891 19.9193L32.9058 20.8436L35.2396 27.0041L44.8339 29.8954V29.8959L44.8348 29.8954L44.8361 29.8959V29.8954L54.43 27.0041L56.7642 20.8436Z" fill="white"/>
<path fill-rule="evenodd" clip-rule="evenodd" d="M56.7642 20.8436L55.2809 19.9193C52.9034 18.543 51.4478 16.0562 51.4478 13.3721V7.95642L44.8348 8.01938L38.2222 7.95642V13.3721C38.2222 16.0562 36.7662 18.543 34.3891 19.9193L32.9058 20.8436L35.2396 27.0041L44.8339 29.8954V29.8959L44.8348 29.8954L44.8361 29.8959V29.8954L54.43 27.0041L56.7642 20.8436Z" stroke="#BFBFBF" stroke-width="0.819407"/>
<path fill-rule="evenodd" clip-rule="evenodd" d="M72.8811 103.063C72.5077 98.5441 71.3713 84.7035 71.3713 80.3377C71.3713 74.806 71.7266 66.6334 71.016 62.736C70.3059 58.8386 68.2925 50.666 68.2925 50.666L71.8448 45.3856L80.8442 47.3973C80.8442 47.3973 81.4365 54.061 81.5548 61.479C81.673 68.8964 83.0942 71.7887 83.0942 79.458C83.0942 85.3064 80.5145 96.4177 79.3048 101.051L78.4538 106.2L75.7811 107.063L72.8811 106.82L72.3513 105.567L72.8811 103.932V103.063Z" fill="white"/>
<path d="M72.3951 105.414C72.9172 104.872 72.8811 103.063 72.8811 103.063C72.5077 98.5441 71.3713 84.7035 71.3713 80.3377C71.3713 74.806 71.7266 66.6334 71.016 62.736C70.3059 58.8386 68.2925 50.666 68.2925 50.666L71.8448 45.3856L80.8442 47.3973C80.8442 47.3973 81.4365 54.061 81.5548 61.479C81.673 68.8964 83.0942 71.7887 83.0942 79.458C83.0942 85.3064 80.5145 96.4177 79.3048 101.051L78.5009 105.414" stroke="#BFBFBF" stroke-width="0.819407"/>
<path d="M23.7566 49.9115C23.539 47.9843 23.4141 48.2883 23.2905 45.8047" stroke="#BFBFBF" stroke-width="0.819407"/>
<path d="M66.1738 49.8801C66.3914 47.9524 66.5163 48.2569 66.6399 45.7733" stroke="#BFBFBF" stroke-width="0.819407"/>
<path d="M82.0143 48.0821C81.991 48.0186 81.966 47.9505 81.9393 47.8779C81.7502 47.3635 81.4778 46.626 81.145 45.734C80.4791 43.9498 79.5719 41.5492 78.6057 39.0817C77.6389 36.6125 76.6158 34.0837 75.7177 32.0403C75.2684 31.0179 74.8541 30.1256 74.4965 29.4265C74.1262 28.7026 73.8521 28.2582 73.6892 28.0721L74.3057 27.5323L73.6892 28.0721C72.5269 26.7443 70.9333 25.8513 69.2474 25.1883C67.9949 24.6956 66.7528 24.3506 65.6252 24.0374C65.2218 23.9253 64.833 23.8173 64.4636 23.708C63.3693 23.3844 61.6072 22.5894 59.8932 21.76C58.1587 20.9207 56.4076 20.0133 55.3065 19.4338C55.2326 19.3952 55.1371 19.431 55.1137 19.5267L55.1136 19.527C54.7974 20.8151 54.0879 22.8817 52.5408 24.6387C50.9689 26.4238 48.5657 27.8475 44.9837 27.8485L44.9832 27.8485C41.401 27.8475 38.9977 26.4238 37.4258 24.6387C35.8786 22.8817 35.1691 20.8151 34.8529 19.527L34.8528 19.5267C34.8293 19.4309 34.7336 19.3951 34.6597 19.434C33.5588 20.0135 31.8078 20.9208 30.0734 21.76C28.3594 22.5894 26.5972 23.3844 25.5029 23.708C25.1336 23.8173 24.7448 23.9253 24.3413 24.0373C23.2137 24.3506 21.9717 24.6956 20.7191 25.1883C19.0332 25.8513 17.4396 26.7443 16.2773 28.0721L16.2773 28.0721C16.1144 28.2582 15.8403 28.7026 15.47 29.4265C15.1124 30.1256 14.6981 31.0179 14.2488 32.0403C13.3507 34.0837 12.3276 36.6125 11.3608 39.0817C10.3946 41.5492 9.48737 43.9498 8.82154 45.734C8.48869 46.626 8.21629 47.3635 8.02716 47.8779C8.00049 47.9505 7.97548 48.0186 7.95218 48.082C8.04775 48.1456 8.15483 48.2164 8.27213 48.2934C8.79983 48.6397 9.5323 49.1093 10.3519 49.6028C12.0207 50.6076 13.9517 51.6502 15.2593 52.0145C16.634 52.3975 18.1434 52.6428 19.3212 52.7924C19.9075 52.8668 20.4059 52.9168 20.7569 52.9482C20.778 52.95 20.7985 52.9519 20.8185 52.9536L22.9426 49.5141L22.9453 49.5097C23.1651 49.1588 23.5676 49.0401 23.9043 49.1273C24.25 49.2169 24.5593 49.5356 24.5558 49.9765C24.5558 49.9766 24.5558 49.9768 24.5558 49.9769L23.7364 49.9701C23.7364 49.981 23.7363 49.9924 23.7362 50.0042L82.0143 48.0821ZM82.0143 48.0821C81.9188 48.1456 81.8117 48.2164 81.6944 48.2934C81.1667 48.6397 80.4342 49.1093 79.6146 49.6028C77.9458 50.6076 76.0148 51.6502 74.7072 52.0145C73.3326 52.3975 71.8232 52.6428 70.6455 52.7924C70.0593 52.8668 69.5609 52.9168 69.2099 52.9482C69.1889 52.95 69.1683 52.9519 69.1483 52.9536L66.9697 49.4271C66.7721 49.1041 66.4023 48.9713 66.0717 49.0431C65.7207 49.1193 65.4098 49.4332 65.4097 49.8647L65.4098 49.8721C65.4182 50.8067 65.498 60.0072 65.498 71.9132C65.498 78.2361 66.1095 87.0987 66.7183 94.3611C67.0231 97.9965 67.3278 101.238 67.5564 103.571C67.6707 104.738 67.7659 105.677 67.8326 106.325C67.844 106.436 67.8545 106.538 67.8641 106.631C67.8668 106.657 67.8695 106.682 67.872 106.707C67.7051 106.766 67.4981 106.836 67.2489 106.914C66.4162 107.175 65.1127 107.529 63.2621 107.885C59.5606 108.597 53.6716 109.316 44.987 109.316C36.3024 109.316 30.4115 108.597 26.7081 107.885C24.8566 107.529 23.552 107.175 22.7186 106.914C22.4688 106.835 22.2613 106.766 22.0941 106.706L82.0143 48.0821ZM22.9171 49.9633L22.9171 49.9638C22.9171 49.9636 22.9171 49.9635 22.9171 49.9633Z" fill="white" stroke="white" stroke-width="1.63881"/>
<path fill-rule="evenodd" clip-rule="evenodd" d="M74.3057 27.5323C71.7375 24.5986 67.3881 23.7184 64.696 22.9223C62.6561 22.319 57.883 19.8639 55.6882 18.7087C55.1387 18.4198 54.467 18.723 54.3178 19.3316C53.7172 21.7782 51.6512 27.0273 44.9835 27.0291C38.3153 27.0273 36.2493 21.7782 35.6487 19.3316C35.4995 18.723 34.8278 18.4198 34.2783 18.7087C32.084 19.8639 27.3104 22.319 25.2705 22.9223C22.5784 23.7184 18.229 24.5986 15.6608 27.5323C13.7573 29.7066 6.9624 48.4028 6.9624 48.4028C6.9624 48.4028 12.1817 52.0077 15.0394 52.8039C17.8975 53.6001 21.253 53.8095 21.253 53.8095L23.6398 49.9447C23.668 49.8996 23.7369 49.917 23.7364 49.9701C23.7259 51.3321 23.6601 60.1178 23.6601 71.6613C23.6601 84.2354 21.2142 107.244 21.2142 107.244C21.2142 107.244 27.528 110.135 44.987 110.135C62.446 110.135 68.7523 107.244 68.7523 107.244C68.7523 107.244 66.3174 84.4842 66.3174 71.9132C66.3174 60.0039 66.2376 50.8007 66.2292 49.8647C66.2292 49.8415 66.2592 49.8353 66.2711 49.8554L68.7139 53.8095C68.7139 53.8095 72.069 53.6001 74.9271 52.8039C77.7848 52.0077 83.0041 48.4028 83.0041 48.4028C83.0041 48.4028 76.2092 29.7066 74.3057 27.5323Z" stroke="#BFBFBF" stroke-width="0.819407"/>
<path fill-rule="evenodd" clip-rule="evenodd" d="M33.08 -5.30626C32.6179 -5.6626 31.9118 -6.04885 31.2056 -5.82737C30.0047 -5.45004 30.0047 -2.09697 30.6257 -0.588998C31.2471 0.919864 32.9869 2.09337 33.5668 2.09337" fill="white"/>
<path fill-rule="evenodd" clip-rule="evenodd" d="M57.4084 -5.30626C57.8343 -5.6626 58.4848 -6.04885 59.1358 -5.82737C60.2431 -5.45004 60.2431 -2.09697 59.6702 -0.588998C59.0978 0.919864 57.4944 2.09337 56.96 2.09337" fill="white"/>
<path d="M57.4084 -5.30626C57.8343 -5.6626 58.4848 -6.04885 59.1358 -5.82737C60.2431 -5.45004 60.2431 -2.09697 59.6702 -0.588998C59.0978 0.919864 57.4944 2.09337 56.96 2.09337" stroke="#BFBFBF" stroke-width="0.819407"/>
<path d="M33.08 -5.30626C32.6179 -5.6626 31.9118 -6.04885 31.2056 -5.82737C30.0047 -5.45004 30.0047 -2.09697 30.6257 -0.588998C31.2471 0.919864 32.9869 2.09337 33.5668 2.09337" stroke="#BFBFBF" stroke-width="0.819407"/>
<path fill-rule="evenodd" clip-rule="evenodd" d="M32.875 -7.18356L33.511 2.70196C33.6633 4.77168 34.4842 6.73378 35.8563 8.27881C38.4695 11.2233 42.8626 15.728 45.2674 15.728C47.6626 15.728 52.0261 11.2586 54.6406 8.31364C56.0317 6.74762 56.8544 4.75203 56.9895 2.6524L57.568 -7.18356C57.568 -7.18356 58.3845 -21.9623 45.1893 -21.9623C31.9937 -21.9623 32.875 -7.18356 32.875 -7.18356Z" fill="white"/>
<path fill-rule="evenodd" clip-rule="evenodd" d="M32.875 -7.18356L33.511 2.70196C33.6633 4.77168 34.4842 6.73378 35.8563 8.27881C38.4695 11.2233 42.8626 15.728 45.2674 15.728C47.6626 15.728 52.0261 11.2586 54.6406 8.31364C56.0317 6.74762 56.8544 4.75203 56.9895 2.6524L57.568 -7.18356C57.568 -7.18356 58.3845 -21.9623 45.1893 -21.9623C31.9937 -21.9623 32.875 -7.18356 32.875 -7.18356Z" stroke="#BFBFBF" stroke-width="0.819407"/>
<g clip-path="url(#clip1_718_33913)">
<path d="M66.8264 51.6175C67.1796 51.9553 67.366 52.3068 67.366 52.6678C67.366 55.2544 58.8237 57.3576 46.9336 57.4043" stroke="#3483FA" stroke-width="0.95" stroke-linecap="round"/>
<path d="M24.3289 51.7941C24.4679 51.6598 24.5068 51.385 24.4156 51.1802C24.3244 50.9755 24.1378 50.9183 23.9988 51.0525L24.3289 51.7941ZM44.82 57.7204C44.9378 57.5478 44.9383 57.2671 44.8211 57.0935L42.9103 54.2646C42.7931 54.091 42.6024 54.0903 42.4845 54.263C42.3666 54.4356 42.3661 54.7163 42.4834 54.8899L44.1819 57.4045L42.4743 59.9057C42.3564 60.0783 42.3559 60.359 42.4732 60.5326C42.5904 60.7062 42.7811 60.7069 42.899 60.5343L44.82 57.7204ZM23.9346 52.4647C23.9346 52.3437 24.0008 52.1108 24.3289 51.7941L23.9988 51.0525C23.6327 51.406 23.3325 51.8701 23.3325 52.4647H23.9346ZM44.6085 56.9628C38.6743 56.9395 33.4476 56.3517 29.7105 55.4504C27.8396 54.9992 26.3554 54.4724 25.3457 53.9071C24.8392 53.6235 24.4695 53.3396 24.2318 53.0677C23.9878 52.7885 23.9346 52.5838 23.9346 52.4647H23.3325C23.3325 52.9922 23.5632 53.4256 23.8624 53.7678C24.168 54.1175 24.6008 54.4386 25.1317 54.7359C26.1968 55.3322 27.7268 55.8704 29.6131 56.3254C33.3905 57.2364 38.6508 57.8261 44.6068 57.8494L44.6085 56.9628Z" fill="#3483FA"/>
<path d="M25.3057 50.8496C28.5993 49.1371 36.4003 47.9333 45.4993 47.9333C54.5948 47.9333 62.3934 49.1362 65.6892 50.8476" stroke="#4189E6" stroke-opacity="0.4" stroke-width="0.51" stroke-linecap="round" stroke-dasharray="2.94 2.94"/>
</g>
</g>
<defs>
<clipPath id="clip0_718_33913">
<rect width="90" height="96" fill="white"/>
</clipPath>
<clipPath id="clip1_718_33913">
<rect width="45" height="14" fill="white" transform="translate(23 47)"/>
</clipPath>
</defs>
</svg>
